<svg width="260" height="257" viewBox="0 0 260 257" fill="none" xmlns="http://www.w3.org/2000/svg">
<g clip-path="url(#clip0_1_2)">
<path d="M222.323 188.837L224.416 184.652C234.879 167.212 239.762 147.681 239.762 128.149C239.762 66.764 189.538 16.54 128.153 16.54C98.856 16.54 70.256 28.399 49.329 49.325C28.402 70.252 16.544 98.155 16.544 128.149C16.544 189.534 66.768 239.759 128.851 239.061C149.777 239.061 170.007 232.783 187.445 222.32L191.631 219.53L232.787 230.69L222.323 188.837Z" fill="#00E676"/>
<path d="M38.168 37.467C13.754 61.184 0.5 93.969 0.5 127.452C0.5 198.602 58.397 255.802 128.85 255.105C151.172 255.105 172.797 248.827 192.328 238.363L258.596 256.5L241.157 188.837C251.621 170.003 256.504 149.077 256.504 128.149C256.504 57.696 198.606 0.496002 128.154 0.496002C93.973 0.496002 61.885 13.751 38.168 37.467ZM234.88 127.452C234.88 146.286 229.998 165.12 220.232 181.164L218.139 185.349L228.602 225.807L188.842 215.344L184.656 218.134C135.13 248.827 69.558 234.178 38.865 183.954C8.173 133.73 22.822 68.857 73.046 38.164C123.27 7.472 188.143 22.121 218.836 72.344C229.299 88.389 234.879 107.92 234.879 127.452H234.88Z" fill="white"/>
<g filter="url(#filter0_d_1_2)">
<path d="M121.84 171.536C115.099 171.536 108.827 170.341 103.024 167.952C97.2213 165.563 92.144 162.235 87.792 157.968C83.5253 153.701 80.1547 148.752 77.68 143.12C75.2907 137.403 74.096 131.259 74.096 124.688C74.096 118.032 75.2907 111.888 77.68 106.256C80.0693 100.624 83.3973 95.7173 87.664 91.536C92.016 87.2693 97.0507 83.984 102.768 81.68C108.571 79.2907 114.843 78.096 121.584 78.096C128.411 78.096 134.683 79.2907 140.4 81.68C146.203 83.984 151.237 87.2693 155.504 91.536C159.856 95.7173 163.227 100.667 165.616 106.384C168.005 112.016 169.2 118.16 169.2 124.816C169.2 131.387 168.005 137.531 165.616 143.248C163.227 148.88 159.856 153.829 155.504 158.096C151.237 162.277 146.245 165.563 140.528 167.952C134.811 170.341 128.581 171.536 121.84 171.536ZM121.584 153.232C127.045 153.232 131.781 152.037 135.792 149.648C139.803 147.259 142.917 143.931 145.136 139.664C147.44 135.312 148.592 130.32 148.592 124.688C148.592 120.421 147.952 116.581 146.672 113.168C145.392 109.669 143.557 106.683 141.168 104.208C138.779 101.648 135.92 99.728 132.592 98.448C129.349 97.0827 125.68 96.4 121.584 96.4C116.208 96.4 111.515 97.5947 107.504 99.984C103.493 102.288 100.336 105.573 98.032 109.84C95.8133 114.021 94.704 118.971 94.704 124.688C94.704 128.955 95.344 132.837 96.624 136.336C97.904 139.835 99.7387 142.864 102.128 145.424C104.517 147.899 107.333 149.819 110.576 151.184C113.904 152.549 117.573 153.232 121.584 153.232ZM162.16 177.168L119.92 134.928L131.568 123.28L173.808 165.52L162.16 177.168Z" fill="white"/>
</g>
</g>
<defs>
<filter id="filter0_d_1_2" x="70.096" y="78.096" width="107.712" height="107.072" filterUnits="userSpaceOnUse" color-interpolation-filters="sRGB">
<feFlood flood-opacity="0" result="BackgroundImageFix"/>
<feColorMatrix in="SourceAlpha" type="matrix" values="0 0 0 0 0 0 0 0 0 0 0 0 0 0 0 0 0 0 127 0" result="hardAlpha"/>
<feOffset dy="4"/>
<feGaussianBlur stdDeviation="2"/>
<feComposite in2="hardAlpha" operator="out"/>
<feColorMatrix type="matrix" values="0 0 0 0 0 0 0 0 0 0 0 0 0 0 0 0 0 0 0.25 0"/>
<feBlend mode="normal" in2="BackgroundImageFix" result="effect1_dropShadow_1_2"/>
<feBlend mode="normal" in="SourceGraphic" in2="effect1_dropShadow_1_2" result="shape"/>
</filter>
<clipPath id="clip0_1_2">
<rect width="256" height="259" fill="white" transform="matrix(0 -1 1 0 0.5 256.5)"/>
</clipPath>
</defs>
</svg>
